<svg width="297" height="103" viewBox="0 0 297 103" fill="none" xmlns="http://www.w3.org/2000/svg">
<g clip-path="url(#clip0_242_96)">
<g filter="url(#filter0_d_242_96)">
<path d="M217.902 80.7938H214.267L211.125 99.2035H207.759L210.9 80.7938H207.622L208.116 77.7874H211.392L212.425 71.8591H215.791L214.759 77.7874H218.396L217.902 80.7938ZM247.868 99.2035H244.501L245.04 96.0301C242.406 98.4799 239.384 99.7032 235.972 99.7032C233.01 99.7032 230.572 98.8401 228.656 97.1155C226.741 95.3892 225.785 93.1502 225.785 90.3937C225.785 86.8877 227.175 83.818 229.959 81.1881C232.742 78.5581 236.02 77.2439 239.789 77.2439C243.29 77.2439 245.863 78.537 247.51 81.1264L248.093 77.7874H251.548L247.868 99.2035ZM239.428 80.2925C236.794 80.2925 234.476 81.2676 232.471 83.2145C230.467 85.163 229.464 87.376 229.464 89.8518C229.464 91.8004 230.137 93.4277 231.484 94.7354C232.831 96.0447 234.551 96.6985 236.646 96.6985C239.189 96.6985 241.457 95.7104 243.445 93.7343C245.436 91.7582 246.43 89.5874 246.43 87.2219C246.43 85.2733 245.779 83.6314 244.478 82.2962C243.177 80.9609 241.493 80.2925 239.428 80.2925ZM277.337 99.2035H273.432L269.212 90.6046L261.896 99.2035H257.992L267.642 88.098L262.391 77.7874H266.295L270.11 85.5946L276.709 77.7874H280.704L271.727 88.0152L277.337 99.2035ZM294.644 74.4063H291.232L291.86 70.6487H295.272L294.644 74.4063ZM290.424 99.2035H287.012L290.647 77.7874H294.059L290.424 99.2035Z" fill="#03B8F1"/>
</g>
<g filter="url(#filter1_d_242_96)">
<mask id="path-2-inside-1_242_96" fill="white">
<path d="M274.375 38.8376C272.987 37.2181 270.693 36.3112 267.652 36.3306C260.992 36.3727 257.601 39.7073 256.022 46.1287C255.975 46.3182 255.931 46.506 255.893 46.6923L274.375 38.8376ZM262.956 63.9968C258.284 63.9968 254.485 62.7125 251.56 60.1439C248.634 57.5754 247.17 54.1436 247.17 49.8487C247.17 44.3747 249.292 39.5842 253.532 35.4788C257.773 31.3717 262.82 29.3198 268.673 29.3198C273.299 29.3198 277.053 30.6364 279.933 33.2681C282.19 35.3298 283.563 37.9016 284.052 40.9851L284.191 41.2701L256.273 53.1347C257.426 55.5316 259.994 56.9648 264.182 57.0523C269.222 57.1576 271.492 55.6368 273.123 52.5695L283.743 48.0559C281.644 56.9746 273.313 64 262.958 64L262.956 63.9968ZM239.127 63.0494H230.281L233.41 44.7942C233.546 43.91 233.614 43.1099 233.614 42.3941C233.614 38.7729 231.778 36.9622 228.104 36.9622C223.387 36.9622 220.505 40.0782 219.462 46.3101L216.604 63.0494H207.692L210.659 45.6477C213.189 30.813 221.171 28.9975 231.437 29.5708C237.984 29.9368 242.869 32.8762 242.869 39.4887C242.869 40.4993 242.778 41.573 242.597 42.7099L239.127 63.0494ZM199.12 63.0494H190.343L195.387 33.4754C195.699 31.6486 197.363 30.3287 199.355 30.3287H199.995C201.213 30.3287 202.26 30.7773 203.05 31.6373C203.84 32.4956 204.154 33.5273 203.964 34.6431L199.12 63.051V63.0494ZM202.148 23.76H201.914C200.698 23.76 199.65 23.3114 198.86 22.453C198.07 21.5947 197.756 20.5647 197.944 19.4488L198.04 18.8869C198.35 17.0584 200.016 15.7369 202.008 15.7369H202.242C203.458 15.7369 204.507 16.1855 205.297 17.0439C206.087 17.9022 206.401 18.9322 206.211 20.0481L206.115 20.61C205.804 22.4385 204.138 23.76 202.146 23.76H202.148ZM182.654 63.0494H173.741L181.506 17.5572C181.818 15.7304 183.482 14.4105 185.475 14.4105H186.251C187.469 14.4105 188.517 14.8591 189.305 15.7191C190.096 16.5774 190.41 17.6091 190.22 18.7249L182.654 63.0494ZM133.666 36.7728H128.63L124.208 63.0494H115.362L119.786 36.7728H115.974L117.131 30.3287H120.941L122.188 22.7575C122.49 20.9226 124.161 19.5914 126.16 19.5914H126.875C128.089 19.5914 129.132 20.0367 129.924 20.8918C130.715 21.7453 131.03 22.7721 130.847 23.8863L129.785 30.3303H134.819L133.663 36.7744L133.666 36.7728ZM106.723 63.0494H97.947L102.99 33.4754C103.302 31.6486 104.967 30.3287 106.959 30.3287H107.599C108.817 30.3287 109.863 30.7773 110.654 31.6373C111.444 32.4956 111.758 33.5273 111.568 34.6431L106.723 63.051V63.0494ZM109.752 23.76H109.518C108.302 23.76 107.254 23.3114 106.463 22.453C105.673 21.5947 105.359 20.5647 105.548 19.4488L105.643 18.8869C105.954 17.0584 107.62 15.7369 109.612 15.7369H109.846C111.062 15.7369 112.11 16.1855 112.9 17.0439C113.691 17.9022 114.005 18.9322 113.814 20.0481L113.719 20.61C113.408 22.4385 111.742 23.76 109.75 23.76H109.752ZM90.3255 63.0494H81.4811L84.5426 45.0468C84.724 43.9942 84.8148 43.0678 84.8148 42.2678C84.8148 38.7291 83.0686 36.9622 79.5762 36.9622C74.9045 36.9622 72.0471 40.0782 71.004 46.3101L68.1466 63.0494H59.2342L66.9987 17.5572C67.311 15.7304 68.9752 14.4105 70.9673 14.4105H71.7384C72.956 14.4105 74.0044 14.8591 74.7946 15.7191C75.5849 16.5791 75.8971 17.6107 75.7053 18.7282L73.1147 33.8026C75.564 30.9814 78.8749 29.5708 83.0476 29.5708C90.3953 29.5708 94.0708 32.8989 94.0708 39.5518C94.0708 40.5203 93.9801 41.5519 93.7987 42.6467L90.3272 63.0494H90.3255ZM162.572 38.8376C161.183 37.2181 158.889 36.3112 155.849 36.3306C149.188 36.3727 145.797 39.7073 144.218 46.1287C144.171 46.3182 144.128 46.506 144.089 46.6923L162.572 38.8376ZM151.153 63.9968C146.481 63.9968 142.682 62.7125 139.756 60.1439C136.831 57.5754 135.367 54.1436 135.367 49.8487C135.367 44.3747 137.488 39.5842 141.729 35.4788C145.97 31.3717 151.017 29.3198 156.869 29.3198C161.495 29.3198 165.249 30.6364 168.13 33.2681C170.387 35.3298 171.76 37.9016 172.248 40.9851L172.388 41.2701L144.47 53.1347C145.623 55.5316 148.191 56.9648 152.379 57.0523C157.419 57.1576 159.688 55.6368 161.319 52.5695L171.939 48.0559C169.841 56.9746 161.509 64 151.154 64L151.153 63.9968ZM292.401 34.5119C262.754 13.0242 258.49 33.5256 218.419 12.8072C197.926 2.21237 185.714 6.76968 169.675 16.0624C144.993 30.3644 160.92 4.39709 142.233 24.5341C141.694 25.1171 140.775 25.2256 140.096 24.7867C139.419 24.3495 139.207 23.5171 139.603 22.8466C152.133 1.45606 150.301 22.6279 166.43 11.91C186.213 -1.23557 204.459 -5.71839 227.664 9.99898C249.023 24.4661 272.423 9.82731 294.578 32.3304C295.141 32.9021 295.141 33.7734 294.576 34.3467C294.007 34.9233 293.063 34.9945 292.401 34.5135V34.5119ZM58.4876 22.7267L39.2847 62.9651H30.5764L27.9231 31.1288L14.3147 62.9651H5.4703L0.0328594 21.6676C-0.11193 20.5679 0.223004 19.5719 1.01324 18.7427C1.80347 17.9135 2.82921 17.4844 4.02241 17.4844H5.81047C7.89683 17.4844 9.62558 18.9516 9.81223 20.8821L12.6138 49.9524L25.5524 19.8327C26.1752 18.3848 27.6056 17.4844 29.2838 17.4844H30.2659C32.3662 17.4844 34.1037 18.9743 34.2711 20.9177L36.7657 49.9524L49.9677 19.81C50.5957 18.3751 52.0209 17.4844 53.6886 17.4844H54.812C56.2111 17.4844 57.4165 18.0901 58.1805 19.18C58.9446 20.2699 59.0528 21.5364 58.4858 22.7251L58.4876 22.7267Z"/>
</mask>
<path d="M274.375 38.8376C272.987 37.2181 270.693 36.3112 267.652 36.3306C260.992 36.3727 257.601 39.7073 256.022 46.1287C255.975 46.3182 255.931 46.506 255.893 46.6923L274.375 38.8376ZM262.956 63.9968C258.284 63.9968 254.485 62.7125 251.56 60.1439C248.634 57.5754 247.17 54.1436 247.17 49.8487C247.17 44.3747 249.292 39.5842 253.532 35.4788C257.773 31.3717 262.82 29.3198 268.673 29.3198C273.299 29.3198 277.053 30.6364 279.933 33.2681C282.19 35.3298 283.563 37.9016 284.052 40.9851L284.191 41.2701L256.273 53.1347C257.426 55.5316 259.994 56.9648 264.182 57.0523C269.222 57.1576 271.492 55.6368 273.123 52.5695L283.743 48.0559C281.644 56.9746 273.313 64 262.958 64L262.956 63.9968ZM239.127 63.0494H230.281L233.41 44.7942C233.546 43.91 233.614 43.1099 233.614 42.3941C233.614 38.7729 231.778 36.9622 228.104 36.9622C223.387 36.9622 220.505 40.0782 219.462 46.3101L216.604 63.0494H207.692L210.659 45.6477C213.189 30.813 221.171 28.9975 231.437 29.5708C237.984 29.9368 242.869 32.8762 242.869 39.4887C242.869 40.4993 242.778 41.573 242.597 42.7099L239.127 63.0494ZM199.12 63.0494H190.343L195.387 33.4754C195.699 31.6486 197.363 30.3287 199.355 30.3287H199.995C201.213 30.3287 202.26 30.7773 203.05 31.6373C203.84 32.4956 204.154 33.5273 203.964 34.6431L199.12 63.051V63.0494ZM202.148 23.76H201.914C200.698 23.76 199.65 23.3114 198.86 22.453C198.07 21.5947 197.756 20.5647 197.944 19.4488L198.04 18.8869C198.35 17.0584 200.016 15.7369 202.008 15.7369H202.242C203.458 15.7369 204.507 16.1855 205.297 17.0439C206.087 17.9022 206.401 18.9322 206.211 20.0481L206.115 20.61C205.804 22.4385 204.138 23.76 202.146 23.76H202.148ZM182.654 63.0494H173.741L181.506 17.5572C181.818 15.7304 183.482 14.4105 185.475 14.4105H186.251C187.469 14.4105 188.517 14.8591 189.305 15.7191C190.096 16.5774 190.41 17.6091 190.22 18.7249L182.654 63.0494ZM133.666 36.7728H128.63L124.208 63.0494H115.362L119.786 36.7728H115.974L117.131 30.3287H120.941L122.188 22.7575C122.49 20.9226 124.161 19.5914 126.16 19.5914H126.875C128.089 19.5914 129.132 20.0367 129.924 20.8918C130.715 21.7453 131.03 22.7721 130.847 23.8863L129.785 30.3303H134.819L133.663 36.7744L133.666 36.7728ZM106.723 63.0494H97.947L102.99 33.4754C103.302 31.6486 104.967 30.3287 106.959 30.3287H107.599C108.817 30.3287 109.863 30.7773 110.654 31.6373C111.444 32.4956 111.758 33.5273 111.568 34.6431L106.723 63.051V63.0494ZM109.752 23.76H109.518C108.302 23.76 107.254 23.3114 106.463 22.453C105.673 21.5947 105.359 20.5647 105.548 19.4488L105.643 18.8869C105.954 17.0584 107.62 15.7369 109.612 15.7369H109.846C111.062 15.7369 112.11 16.1855 112.9 17.0439C113.691 17.9022 114.005 18.9322 113.814 20.0481L113.719 20.61C113.408 22.4385 111.742 23.76 109.75 23.76H109.752ZM90.3255 63.0494H81.4811L84.5426 45.0468C84.724 43.9942 84.8148 43.0678 84.8148 42.2678C84.8148 38.7291 83.0686 36.9622 79.5762 36.9622C74.9045 36.9622 72.0471 40.0782 71.004 46.3101L68.1466 63.0494H59.2342L66.9987 17.5572C67.311 15.7304 68.9752 14.4105 70.9673 14.4105H71.7384C72.956 14.4105 74.0044 14.8591 74.7946 15.7191C75.5849 16.5791 75.8971 17.6107 75.7053 18.7282L73.1147 33.8026C75.564 30.9814 78.8749 29.5708 83.0476 29.5708C90.3953 29.5708 94.0708 32.8989 94.0708 39.5518C94.0708 40.5203 93.9801 41.5519 93.7987 42.6467L90.3272 63.0494H90.3255ZM162.572 38.8376C161.183 37.2181 158.889 36.3112 155.849 36.3306C149.188 36.3727 145.797 39.7073 144.218 46.1287C144.171 46.3182 144.128 46.506 144.089 46.6923L162.572 38.8376ZM151.153 63.9968C146.481 63.9968 142.682 62.7125 139.756 60.1439C136.831 57.5754 135.367 54.1436 135.367 49.8487C135.367 44.3747 137.488 39.5842 141.729 35.4788C145.97 31.3717 151.017 29.3198 156.869 29.3198C161.495 29.3198 165.249 30.6364 168.13 33.2681C170.387 35.3298 171.76 37.9016 172.248 40.9851L172.388 41.2701L144.47 53.1347C145.623 55.5316 148.191 56.9648 152.379 57.0523C157.419 57.1576 159.688 55.6368 161.319 52.5695L171.939 48.0559C169.841 56.9746 161.509 64 151.154 64L151.153 63.9968ZM292.401 34.5119C262.754 13.0242 258.49 33.5256 218.419 12.8072C197.926 2.21237 185.714 6.76968 169.675 16.0624C144.993 30.3644 160.92 4.39709 142.233 24.5341C141.694 25.1171 140.775 25.2256 140.096 24.7867C139.419 24.3495 139.207 23.5171 139.603 22.8466C152.133 1.45606 150.301 22.6279 166.43 11.91C186.213 -1.23557 204.459 -5.71839 227.664 9.99898C249.023 24.4661 272.423 9.82731 294.578 32.3304C295.141 32.9021 295.141 33.7734 294.576 34.3467C294.007 34.9233 293.063 34.9945 292.401 34.5135V34.5119ZM58.4876 22.7267L39.2847 62.9651H30.5764L27.9231 31.1288L14.3147 62.9651H5.4703L0.0328594 21.6676C-0.11193 20.5679 0.223004 19.5719 1.01324 18.7427C1.80347 17.9135 2.82921 17.4844 4.02241 17.4844H5.81047C7.89683 17.4844 9.62558 18.9516 9.81223 20.8821L12.6138 49.9524L25.5524 19.8327C26.1752 18.3848 27.6056 17.4844 29.2838 17.4844H30.2659C32.3662 17.4844 34.1037 18.9743 34.2711 20.9177L36.7657 49.9524L49.9677 19.81C50.5957 18.3751 52.0209 17.4844 53.6886 17.4844H54.812C56.2111 17.4844 57.4165 18.0901 58.1805 19.18C58.9446 20.2699 59.0528 21.5364 58.4858 22.7251L58.4876 22.7267Z" fill="#03B8F1"/>
<path d="M274.375 38.8376C272.987 37.2181 270.693 36.3112 267.652 36.3306C260.992 36.3727 257.601 39.7073 256.022 46.1287C255.975 46.3182 255.931 46.506 255.893 46.6923L274.375 38.8376ZM262.956 63.9968C258.284 63.9968 254.485 62.7125 251.56 60.1439C248.634 57.5754 247.17 54.1436 247.17 49.8487C247.17 44.3747 249.292 39.5842 253.532 35.4788C257.773 31.3717 262.82 29.3198 268.673 29.3198C273.299 29.3198 277.053 30.6364 279.933 33.2681C282.19 35.3298 283.563 37.9016 284.052 40.9851L284.191 41.2701L256.273 53.1347C257.426 55.5316 259.994 56.9648 264.182 57.0523C269.222 57.1576 271.492 55.6368 273.123 52.5695L283.743 48.0559C281.644 56.9746 273.313 64 262.958 64L262.956 63.9968ZM239.127 63.0494H230.281L233.41 44.7942C233.546 43.91 233.614 43.1099 233.614 42.3941C233.614 38.7729 231.778 36.9622 228.104 36.9622C223.387 36.9622 220.505 40.0782 219.462 46.3101L216.604 63.0494H207.692L210.659 45.6477C213.189 30.813 221.171 28.9975 231.437 29.5708C237.984 29.9368 242.869 32.8762 242.869 39.4887C242.869 40.4993 242.778 41.573 242.597 42.7099L239.127 63.0494ZM199.12 63.0494H190.343L195.387 33.4754C195.699 31.6486 197.363 30.3287 199.355 30.3287H199.995C201.213 30.3287 202.26 30.7773 203.05 31.6373C203.84 32.4956 204.154 33.5273 203.964 34.6431L199.12 63.051V63.0494ZM202.148 23.76H201.914C200.698 23.76 199.65 23.3114 198.86 22.453C198.07 21.5947 197.756 20.5647 197.944 19.4488L198.04 18.8869C198.35 17.0584 200.016 15.7369 202.008 15.7369H202.242C203.458 15.7369 204.507 16.1855 205.297 17.0439C206.087 17.9022 206.401 18.9322 206.211 20.0481L206.115 20.61C205.804 22.4385 204.138 23.76 202.146 23.76H202.148ZM182.654 63.0494H173.741L181.506 17.5572C181.818 15.7304 183.482 14.4105 185.475 14.4105H186.251C187.469 14.4105 188.517 14.8591 189.305 15.7191C190.096 16.5774 190.41 17.6091 190.22 18.7249L182.654 63.0494ZM133.666 36.7728H128.63L124.208 63.0494H115.362L119.786 36.7728H115.974L117.131 30.3287H120.941L122.188 22.7575C122.49 20.9226 124.161 19.5914 126.16 19.5914H126.875C128.089 19.5914 129.132 20.0367 129.924 20.8918C130.715 21.7453 131.03 22.7721 130.847 23.8863L129.785 30.3303H134.819L133.663 36.7744L133.666 36.7728ZM106.723 63.0494H97.947L102.99 33.4754C103.302 31.6486 104.967 30.3287 106.959 30.3287H107.599C108.817 30.3287 109.863 30.7773 110.654 31.6373C111.444 32.4956 111.758 33.5273 111.568 34.6431L106.723 63.051V63.0494ZM109.752 23.76H109.518C108.302 23.76 107.254 23.3114 106.463 22.453C105.673 21.5947 105.359 20.5647 105.548 19.4488L105.643 18.8869C105.954 17.0584 107.62 15.7369 109.612 15.7369H109.846C111.062 15.7369 112.11 16.1855 112.9 17.0439C113.691 17.9022 114.005 18.9322 113.814 20.0481L113.719 20.61C113.408 22.4385 111.742 23.76 109.75 23.76H109.752ZM90.3255 63.0494H81.4811L84.5426 45.0468C84.724 43.9942 84.8148 43.0678 84.8148 42.2678C84.8148 38.7291 83.0686 36.9622 79.5762 36.9622C74.9045 36.9622 72.0471 40.0782 71.004 46.3101L68.1466 63.0494H59.2342L66.9987 17.5572C67.311 15.7304 68.9752 14.4105 70.9673 14.4105H71.7384C72.956 14.4105 74.0044 14.8591 74.7946 15.7191C75.5849 16.5791 75.8971 17.6107 75.7053 18.7282L73.1147 33.8026C75.564 30.9814 78.8749 29.5708 83.0476 29.5708C90.3953 29.5708 94.0708 32.8989 94.0708 39.5518C94.0708 40.5203 93.9801 41.5519 93.7987 42.6467L90.3272 63.0494H90.3255ZM162.572 38.8376C161.183 37.2181 158.889 36.3112 155.849 36.3306C149.188 36.3727 145.797 39.7073 144.218 46.1287C144.171 46.3182 144.128 46.506 144.089 46.6923L162.572 38.8376ZM151.153 63.9968C146.481 63.9968 142.682 62.7125 139.756 60.1439C136.831 57.5754 135.367 54.1436 135.367 49.8487C135.367 44.3747 137.488 39.5842 141.729 35.4788C145.97 31.3717 151.017 29.3198 156.869 29.3198C161.495 29.3198 165.249 30.6364 168.13 33.2681C170.387 35.3298 171.76 37.9016 172.248 40.9851L172.388 41.2701L144.47 53.1347C145.623 55.5316 148.191 56.9648 152.379 57.0523C157.419 57.1576 159.688 55.6368 161.319 52.5695L171.939 48.0559C169.841 56.9746 161.509 64 151.154 64L151.153 63.9968ZM292.401 34.5119C262.754 13.0242 258.49 33.5256 218.419 12.8072C197.926 2.21237 185.714 6.76968 169.675 16.0624C144.993 30.3644 160.92 4.39709 142.233 24.5341C141.694 25.1171 140.775 25.2256 140.096 24.7867C139.419 24.3495 139.207 23.5171 139.603 22.8466C152.133 1.45606 150.301 22.6279 166.43 11.91C186.213 -1.23557 204.459 -5.71839 227.664 9.99898C249.023 24.4661 272.423 9.82731 294.578 32.3304C295.141 32.9021 295.141 33.7734 294.576 34.3467C294.007 34.9233 293.063 34.9945 292.401 34.5135V34.5119ZM58.4876 22.7267L39.2847 62.9651H30.5764L27.9231 31.1288L14.3147 62.9651H5.4703L0.0328594 21.6676C-0.11193 20.5679 0.223004 19.5719 1.01324 18.7427C1.80347 17.9135 2.82921 17.4844 4.02241 17.4844H5.81047C7.89683 17.4844 9.62558 18.9516 9.81223 20.8821L12.6138 49.9524L25.5524 19.8327C26.1752 18.3848 27.6056 17.4844 29.2838 17.4844H30.2659C32.3662 17.4844 34.1037 18.9743 34.2711 20.9177L36.7657 49.9524L49.9677 19.81C50.5957 18.3751 52.0209 17.4844 53.6886 17.4844H54.812C56.2111 17.4844 57.4165 18.0901 58.1805 19.18C58.9446 20.2699 59.0528 21.5364 58.4858 22.7251L58.4876 22.7267Z" stroke="#03B8F1" stroke-width="2" mask="url(#path-2-inside-1_242_96)"/>
</g>
</g>
<defs>
<filter id="filter0_d_242_96" x="203.622" y="70.6487" width="95.6491" height="37.0545" filterUnits="userSpaceOnUse" color-interpolation-filters="sRGB">
<feFlood flood-opacity="0" result="BackgroundImageFix"/>
<feColorMatrix in="SourceAlpha" type="matrix" values="0 0 0 0 0 0 0 0 0 0 0 0 0 0 0 0 0 0 127 0" result="hardAlpha"/>
<feOffset dy="4"/>
<feGaussianBlur stdDeviation="2"/>
<feComposite in2="hardAlpha" operator="out"/>
<feColorMatrix type="matrix" values="0 0 0 0 0 0 0 0 0 0 0 0 0 0 0 0 0 0 0.25 0"/>
<feBlend mode="normal" in2="BackgroundImageFix" result="effect1_dropShadow_242_96"/>
<feBlend mode="normal" in="SourceGraphic" in2="effect1_dropShadow_242_96" result="shape"/>
</filter>
<filter id="filter1_d_242_96" x="-4" y="0" width="303" height="72" filterUnits="userSpaceOnUse" color-interpolation-filters="sRGB">
<feFlood flood-opacity="0" result="BackgroundImageFix"/>
<feColorMatrix in="SourceAlpha" type="matrix" values="0 0 0 0 0 0 0 0 0 0 0 0 0 0 0 0 0 0 127 0" result="hardAlpha"/>
<feOffset dy="4"/>
<feGaussianBlur stdDeviation="2"/>
<feComposite in2="hardAlpha" operator="out"/>
<feColorMatrix type="matrix" values="0 0 0 0 0 0 0 0 0 0 0 0 0 0 0 0 0 0 0.25 0"/>
<feBlend mode="normal" in2="BackgroundImageFix" result="effect1_dropShadow_242_96"/>
<feBlend mode="normal" in="SourceGraphic" in2="effect1_dropShadow_242_96" result="shape"/>
</filter>
<clipPath id="clip0_242_96">
<rect width="296.706" height="103" fill="white"/>
</clipPath>
</defs>
</svg>
